<svg width="69" height="55" viewBox="0 0 69 55" fill="none" xmlns="http://www.w3.org/2000/svg">
<ellipse cx="18.6922" cy="34.9769" rx="15.3692" ry="15.3692" fill="#EB6758"/>
<ellipse cx="49.4308" cy="34.9769" rx="15.3692" ry="15.3692" fill="#EB6758"/>
<ellipse cx="20.5614" cy="35.1846" rx="13.0846" ry="13.0846" fill="white"/>
<ellipse cx="47.5614" cy="35.1846" rx="13.0846" ry="13.0846" fill="white"/>
<path d="M68.9538 3.54898C68.9538 14.2532 53.518 22.9308 34.4769 22.9308C15.4358 22.9308 0 14.2532 0 3.54898C0 -7.15529 15.4358 13.7637 34.4769 13.7637C53.518 13.7637 68.9538 -7.15529 68.9538 3.54898Z" fill="#FDBB64"/>
<circle cx="24.5076" cy="34.9769" r="6.23077" fill="black"/>
<circle cx="43.6153" cy="34.9769" r="6.23077" fill="black"/>
<path d="M35.5568 52.8165C34.7611 53.7123 33.3618 53.7123 32.5661 52.8165L29.823 49.7282C28.6772 48.4382 29.5929 46.4 31.3183 46.4L36.8046 46.4C38.53 46.4 39.4457 48.4382 38.2999 49.7282L35.5568 52.8165Z" fill="#FDBB64"/>
</svg>
